<svg class="ico-svg _top" width="16" height="14" viewBox="0 0 16 14" fill="currentColor" xmlns="http://www.w3.org/2000/svg"><path d="M0 2.95022V11.0498C0 12.1658 0.910463 13.0763 2.02651 13.0763H8.57271C9.68876 13.0763 10.5992 12.1658 10.5992 11.0498V9.7379C10.5992 9.516 10.4197 9.33651 10.1978 9.33651C9.97593 9.33651 9.79645 9.516 9.79645 9.7379V11.0498C9.79645 11.7253 9.24495 12.2768 8.56945 12.2768H2.02651C1.35101 12.2768 0.799511 11.7253 0.799511 11.0498V2.95022C0.799511 2.27472 1.35101 1.72322 2.02651 1.72322H8.57271C9.24822 1.72322 9.79972 2.27472 9.79972 2.95022V4.26207C9.79972 4.48398 9.9792 4.66346 10.2011 4.66346C10.423 4.66346 10.6025 4.48398 10.6025 4.26207V2.95022C10.6025 1.83417 9.69203 0.923706 8.57597 0.923706H2.02651C0.910463 0.923706 0 1.83091 0 2.95022Z"/><path d="M12.577 10.0186C12.6553 10.0969 12.7565 10.1361 12.8609 10.1361C12.9653 10.1361 13.0665 10.0969 13.1448 10.0186L15.8827 7.28067C16.0394 7.12403 16.0394 6.87276 15.8827 6.71612L13.1448 3.9782C12.9882 3.82156 12.7369 3.82156 12.5803 3.9782C12.4236 4.13484 12.4236 4.38611 12.5803 4.54275L14.6362 6.59864H7.13381C6.9119 6.59864 6.73242 6.77812 6.73242 7.00003C6.73242 7.22193 6.9119 7.40142 7.13381 7.40142H14.6329L12.577 9.4573C12.4204 9.61068 12.4204 9.86522 12.577 10.0186Z"/></svg>