<svg fill="none" height="26" viewBox="0 0 26 26" width="26" xmlns="http://www.w3.org/2000/svg" xmlns:xlink="http://www.w3.org/1999/xlink"><clipPath id="a"><path d="m0 0h26v26h-26z"/></clipPath><g clip-path="url(#a)"><path d="m26 4.33331h-26v17.33349h26z" fill="#f0f0f0"/><path d="m14.625 4.33316h-3.25v7.04164h-11.375v3.25h11.375v7.0416h3.25v-7.0416h11.375v-3.25h-11.375z" fill="#d80027"/><g fill="#0052b4"><path d="m19.9971 16.0143 6.0031 3.3351v-3.3351z"/><path d="m15.8262 16.0143 10.1739 5.6521v-1.5983l-7.2969-4.0538z"/><path d="m23.2901 21.6664-7.4639-4.147v4.147z"/></g><path d="m15.8262 16.0143 10.1739 5.6521v-1.5983l-7.2969-4.0538z" fill="#f0f0f0"/><path d="m15.8262 16.0143 10.1739 5.6521v-1.5983l-7.2969-4.0538z" fill="#d80027"/><path d="m4.58763 16.0142-4.58763 2.5487v-2.5487z" fill="#0052b4"/><path d="m10.1734 16.7329v4.9335h-8.87945z" fill="#0052b4"/><path d="m7.29691 16.0143-7.29691 4.0538v1.5983l10.1739-5.6521z" fill="#d80027"/><path d="m6.00311 9.98532-6.00311-3.33511v3.33511z" fill="#0052b4"/><path d="m10.1739 9.98532-10.1739-5.65216v1.59829l7.29691 4.05387z" fill="#0052b4"/><path d="m2.70996 4.33316 7.46394 4.147v-4.147z" fill="#0052b4"/><path d="m10.1739 9.98532-10.1739-5.65216v1.59829l7.29691 4.05387z" fill="#f0f0f0"/><path d="m10.1739 9.98532-10.1739-5.65216v1.59829l7.29691 4.05387z" fill="#d80027"/><path d="m21.4131 9.98544 4.5876-2.54871v2.54871z" fill="#0052b4"/><path d="m15.8262 9.26666v-4.93344h8.8794z" fill="#0052b4"/><path d="m18.7032 9.98532 7.2969-4.05387v-1.59829l-10.1739 5.65216z" fill="#d80027"/></g></svg>