<svg fill="none" height="16" viewBox="0 0 16 16" width="16" xmlns="http://www.w3.org/2000/svg"><path clip-rule="evenodd" d="m13.7799 12.7779-3.2855-3.28678c.589-.80324.9045-1.77433.9001-2.77031-.0113-2.59987-2.1141-4.70575-4.71395-4.72076-1.24417-.00563-2.43892.48657-3.31808 1.36694-.87917.88037-1.36973 2.0758-1.36239 3.31996.01124 2.6001 2.11425 4.70615 4.71433 4.72115 1.00005.0044 1.97468-.3148 2.77846-.9098l.00342-.0026 3.28251 3.2842c.1774.1862.4419.2615.6908.1969.249-.0647.4433-.2592.5078-.5082.0644-.249-.0112-.5134-.1975-.6907zm-7.06885-2.3109c-2.07995-.012-3.76233-1.69666-3.77146-3.77662-.00562-.9952.38686-1.95135 1.09006-2.6556.7032-.70424 1.65876-1.09814 2.65397-1.09401 2.07995.01197 3.76238 1.69664 3.77148 3.77661.0056.9952-.3869 1.95135-1.09008 2.65559-.7032.70423-1.65876 1.09813-2.65397 1.09403z" fill="#fff" fill-rule="evenodd"/></svg>